<svg width="22" height="17" viewBox="0 0 22 17" fill="none" xmlns="http://www.w3.org/2000/svg">
<g id="&#240;&#159;&#166;&#134; icon &#34;Egypt&#34;">
<g id="Mask group">
<mask id="mask0_0_1392" style="mask-type:luminance" maskUnits="userSpaceOnUse" x="0" y="0" width="22" height="17">
<g id="Group">
<path id="Vector" d="M0 0.5H21.3331V16.5H0V0.5Z" fill="white"/>
</g>
</mask>
<g mask="url(#mask0_0_1392)">
<g id="Group_2">
<path id="Vector_2" fill-rule="evenodd" clip-rule="evenodd" d="M0 0.499634V16.4996H21.3331V0.499634H0Z" fill="#F7FCFF"/>
<g id="Mask group_2">
<mask id="mask1_0_1392" style="mask-type:luminance" maskUnits="userSpaceOnUse" x="0" y="0" width="22" height="17">
<g id="Group_3">
<path id="Vector_3" fill-rule="evenodd" clip-rule="evenodd" d="M0 0.498474V16.4985H21.3331V0.498474H0Z" fill="white"/>
</g>
</mask>
<g mask="url(#mask1_0_1392)">
<g id="Group_4">
<path id="Vector_4" fill-rule="evenodd" clip-rule="evenodd" d="M0 0.498474V5.83181H21.3331V0.498474H0Z" fill="#BF2714"/>
<path id="Vector_5" fill-rule="evenodd" clip-rule="evenodd" d="M0 11.1651V16.4984H21.3331V11.1651H0Z" fill="#272727"/>
<g id="Group_5">
<path id="Vector_6" d="M8.17348 7.31207L8.83941 7.34261L8.67228 10.9891L8.00629 10.9586L8.17348 7.31207Z" fill="#C09302"/>
<path id="Vector_7" d="M8.86929 7.5387L9.53488 7.5763L9.36768 10.5332L8.70209 10.4956L8.86929 7.5387Z" fill="#C09302"/>
<path id="Vector_8" d="M9.56551 7.75995L10.23 7.81448L10.0628 9.85182L9.39838 9.79735L9.56551 7.75995Z" fill="#C09302"/>
<path id="Vector_9" d="M13.1596 7.31207L12.4937 7.34261L12.6608 10.9891L13.3268 10.9586L13.1596 7.31207Z" fill="#C09302"/>
<path id="Vector_10" d="M12.4638 7.5387L11.7982 7.5763L11.9653 10.5332L12.631 10.4956L12.4638 7.5387Z" fill="#C09302"/>
<path id="Vector_11" d="M11.7675 7.75995L11.1031 7.81448L11.2703 9.85182L11.9347 9.79735L11.7675 7.75995Z" fill="#C09302"/>
<path id="Vector_12" d="M10.6488 10.7161L9.9989 10.5672L10.274 9.3667L10.9238 9.51557L10.6488 10.7161Z" fill="#C09302"/>
<path id="Vector_13" d="M11.1463 10.7161L11.7961 10.5672L11.521 9.3667L10.8712 9.51557L11.1463 10.7161Z" fill="#C09302"/>
<path id="Vector_14" d="M10.9814 10.7056H10.3147V9.52698H10.9814V10.7056Z" fill="#C09302"/>
<path id="Vector_15" d="M9.7564 7.77411L10.4229 7.79044L10.3839 9.37771L9.71747 9.36138L9.7564 7.77411Z" fill="#C09302"/>
<path id="Vector_16" d="M10.9158 7.77411L11.5822 7.79044L11.5433 9.37771L10.8768 9.36138L10.9158 7.77411Z" fill="#C09302"/>
<path id="Vector_17" d="M8.89191 11.114L9.06504 10.4703C9.77236 10.6605 10.3156 10.7545 10.6859 10.7545C11.0563 10.7545 11.5994 10.6605 12.3067 10.4703L12.4799 11.114C11.7209 11.3181 11.1258 11.4212 10.6859 11.4212C10.246 11.4212 9.65083 11.3181 8.89191 11.114Z" fill="#C09302"/>
<path id="Vector_18" d="M8.18806 7.31371C8.1436 6.87327 8.40139 6.57515 8.83819 6.61318C8.98185 6.62568 9.14318 6.66817 9.35805 6.74107C9.42085 6.76261 9.42085 6.76261 9.48185 6.78421C9.77724 6.88928 9.85744 6.91629 9.87411 6.91984C9.80864 6.90501 10.0014 6.5565 10.0456 6.49776C10.0508 6.53507 10.0287 6.52975 9.97537 6.51909L9.37405 6.39873L9.80211 5.95957C9.95171 5.80606 10.151 5.72994 10.3784 5.72994C10.402 5.72994 10.424 5.72884 10.4962 5.7244C10.5496 5.72115 10.5496 5.72115 10.6097 5.71867C11.0256 5.70519 11.324 5.82281 11.324 6.25058C11.324 6.40362 11.3433 6.64972 11.3752 6.83642C11.386 6.89923 11.4066 6.95801 11.3455 6.98383C11.348 6.96155 11.4938 6.90405 11.7203 6.80931L11.7475 6.79794C12.4057 6.52317 12.4827 6.49769 12.6949 6.62665C12.8363 6.71259 12.9709 6.86717 13.1218 7.09764L12.564 7.46277C12.4667 7.31411 12.3892 7.22391 12.3523 7.19871C12.4362 7.25697 12.1537 7.35077 12.0043 7.41317L11.9775 7.42437C11.465 7.63871 11.3974 7.66424 11.2509 7.66424C10.8521 7.66424 10.7089 7.25577 10.6697 6.67073C10.5466 7.07577 10.1796 7.58691 9.87704 7.58691C9.74457 7.58691 9.80824 7.60791 9.25845 7.41231C9.20085 7.39197 9.20085 7.39197 9.14385 7.37237C8.97732 7.31591 8.85712 7.28417 8.78132 7.27744C8.78445 7.27384 8.79559 7.26184 8.80812 7.25111L8.18806 7.31371Z" fill="#C09302"/>
</g>
</g>
</g>
</g>
</g>
</g>
</g>
</g>
</svg>
