<svg width="22" height="17" viewBox="0 0 22 17" fill="none" xmlns="http://www.w3.org/2000/svg">
<g id="&#240;&#159;&#166;&#134; icon &#34;Morocco&#34;">
<g id="Mask group">
<mask id="mask0_0_1492" style="mask-type:luminance" maskUnits="userSpaceOnUse" x="0" y="0" width="22" height="17">
<g id="Group">
<path id="Vector" fill-rule="evenodd" clip-rule="evenodd" d="M0 0.5H21.3331V16.5H0V0.5Z" fill="white"/>
</g>
</mask>
<g mask="url(#mask0_0_1492)">
<g id="Group_2">
<path id="Vector_2" fill-rule="evenodd" clip-rule="evenodd" d="M0 0.5H21.3331V15.1667C21.3331 15.9031 20.7362 16.5 19.9998 16.5H1.33332C0.596949 16.5 0 15.9031 0 15.1667V0.5Z" fill="#C51918"/>
<path id="Vector_3" fill-rule="evenodd" clip-rule="evenodd" d="M0 0.5H21.3331V16.5H0V0.5Z" fill="#E31D1C"/>
<g id="Group_3">
<path id="Vector_4" fill-rule="evenodd" clip-rule="evenodd" d="M14.9878 13.584L10.7771 2.30035H10.5944L6.53003 13.584L10.7509 11.0473L14.9878 13.584ZM10.311 5.9813L10.7623 4.2224L11.2308 6.03168L12.5765 9.80265L13.3667 11.6284L11.6609 10.4266L10.7499 9.88118L9.85369 10.4198L8.18743 11.6284L8.95776 9.76525L10.311 5.9813Z" fill="#579D20"/>
<path id="Vector_5" fill-rule="evenodd" clip-rule="evenodd" d="M8.44157 9.48207L10.7722 11.0314L12.9469 9.48207L17.0774 5.99097H4.25677L8.44157 9.48207ZM8.48997 8.1494L6.90492 7.1794H8.8387H12.6811H14.387L13.0263 8.04127L10.7621 9.75927L8.48997 8.1494Z" fill="#579D20"/>
</g>
</g>
</g>
</g>
</g>
</svg>
