<svg width="22" height="17" viewBox="0 0 22 17" fill="none" xmlns="http://www.w3.org/2000/svg">
<g id="&#240;&#159;&#166;&#134; icon &#34;Tunisia&#34;">
<g id="Mask group">
<mask id="mask0_0_1463" style="mask-type:luminance" maskUnits="userSpaceOnUse" x="0" y="0" width="22" height="17">
<g id="Group">
<path id="Vector" fill-rule="evenodd" clip-rule="evenodd" d="M0 0.5H21.3331V16.5H0V0.5Z" fill="white"/>
</g>
</mask>
<g mask="url(#mask0_0_1463)">
<g id="Group_2">
<path id="Vector_2" fill-rule="evenodd" clip-rule="evenodd" d="M0 0.5V16.5H21.3331V0.5H0Z" fill="#E31D1C"/>
<g id="Mask group_2">
<mask id="mask1_0_1463" style="mask-type:luminance" maskUnits="userSpaceOnUse" x="0" y="0" width="22" height="17">
<g id="Group_3">
<path id="Vector_3" fill-rule="evenodd" clip-rule="evenodd" d="M0 0.499023V16.499H21.3331V0.499023H0Z" fill="white"/>
</g>
</mask>
<g mask="url(#mask1_0_1463)">
<g id="Group_4">
<path id="Vector_4" fill-rule="evenodd" clip-rule="evenodd" d="M10.6666 13.8335C13.6121 13.8335 15.9999 11.4457 15.9999 8.50014C15.9999 5.55462 13.6121 3.16681 10.6666 3.16681C7.72109 3.16681 5.33331 5.55462 5.33331 8.50014C5.33331 11.4457 7.72109 13.8335 10.6666 13.8335Z" fill="#F7FCFF"/>
<path id="Vector_5" fill-rule="evenodd" clip-rule="evenodd" d="M11.6018 12.2675C11.6018 12.2675 8.79089 11.5006 8.79089 8.48267C8.79089 5.46465 11.6018 4.63203 11.6018 4.63203C10.4395 4.18216 7.0379 4.87242 7.0379 8.48267C7.0379 12.0929 10.5343 12.7431 11.6018 12.2675ZM11.447 7.82594L10.0525 8.33547L11.5513 8.8594L11.6018 10.2627L12.5139 9.17247L14.018 9.27927L12.9343 8.39514L13.587 7.11842L12.3121 7.54754L11.4289 6.44357L11.447 7.82594Z" fill="#E31D1C"/>
</g>
</g>
</g>
</g>
</g>
</g>
</g>
</svg>
